<?xml version="1.0" standalone="no"?>
<!DOCTYPE svg PUBLIC "-//W3C//DTD SVG 20010904//EN"
 "http://www.w3.org/TR/2001/REC-SVG-20010904/DTD/svg10.dtd">
<svg version="1.0" xmlns="http://www.w3.org/2000/svg"
 width="400.000000pt" height="400.000000pt" viewBox="0 0 400.000000 400.000000"
 preserveAspectRatio="xMidYMid meet">

<g transform="translate(0.000000,400.000000) scale(0.100000,-0.100000)"
fill="#000000" stroke="none">
<path d="M1095 3980 c-11 -5 -46 -9 -77 -9 -31 -1 -60 -5 -63 -11 -3 -5 -16
-10 -27 -10 -23 0 -81 -17 -110 -31 -10 -5 -22 -9 -28 -9 -18 0 -216 -100
-238 -120 -12 -11 -26 -20 -32 -20 -5 0 -10 -4 -10 -10 0 -5 -6 -10 -13 -10
-7 0 -19 -9 -27 -20 -8 -11 -18 -20 -23 -20 -12 0 -37 -27 -37 -39 0 -6 -6
-11 -14 -11 -11 0 -54 -43 -129 -131 -37 -43 -87 -117 -87 -128 0 -6 -4 -11
-10 -11 -5 0 -10 -9 -10 -20 0 -11 -4 -20 -10 -20 -5 0 -10 -9 -10 -20 0 -11
-4 -20 -10 -20 -5 0 -10 -9 -10 -20 0 -11 -4 -20 -8 -20 -4 0 -14 -21 -21 -47
-8 -27 -18 -55 -22 -63 -4 -8 -12 -33 -17 -55 -6 -22 -16 -60 -24 -85 -10 -36
-13 -237 -13 -1020 l0 -975 24 -95 c13 -52 32 -115 43 -140 43 -101 111 -232
124 -237 8 -3 14 -14 14 -24 0 -10 4 -19 9 -19 5 0 12 -9 16 -20 5 -17 163
-182 212 -221 42 -34 142 -99 152 -99 6 0 11 -4 11 -10 0 -5 9 -10 20 -10 11
0 20 -3 20 -8 0 -4 15 -13 32 -20 18 -7 41 -18 50 -23 10 -5 25 -9 33 -9 8 0
15 -4 15 -10 0 -5 14 -10 30 -10 17 0 30 -4 30 -10 0 -5 15 -10 34 -10 19 0
38 -4 41 -10 3 -5 26 -10 51 -10 24 0 44 -4 44 -10 0 -14 2066 -14 2075 0 3 6
24 10 45 10 21 0 42 5 45 10 3 6 19 10 35 10 16 0 32 5 35 10 3 6 14 10 25 10
10 0 38 10 62 21 23 12 50 25 58 29 24 11 65 35 70 40 3 3 17 11 32 19 15 8
37 22 47 33 11 10 23 18 26 18 3 0 13 8 23 17 10 10 36 34 57 53 86 76 225
271 242 340 3 14 9 27 12 30 8 6 45 126 60 190 6 25 13 82 17 128 l6 82 -1446
0 c-1525 0 -1466 -2 -1508 44 -29 31 -24 104 10 142 74 86 118 138 126 152 5
9 23 30 40 47 17 17 42 46 56 64 14 18 37 45 51 61 14 15 36 42 50 60 13 17
37 46 53 63 16 18 45 52 65 77 20 25 45 54 56 66 11 12 27 31 35 44 8 12 32
41 54 63 21 23 62 71 91 107 29 36 62 74 74 84 11 11 21 23 21 28 0 5 10 19
23 32 25 26 65 74 87 106 8 12 27 35 43 51 15 16 27 33 27 39 0 7 -146 10
-425 10 -277 0 -425 3 -425 10 0 6 -7 10 -16 10 -34 0 -112 68 -140 121 -32
62 -22 191 20 245 28 38 66 74 75 74 6 0 11 5 11 10 0 6 9 10 19 10 11 0 23 5
26 10 4 7 314 10 898 10 l892 0 20 -26 c11 -15 23 -37 26 -49 9 -30 -12 -87
-43 -118 -13 -13 -42 -46 -64 -73 -21 -27 -54 -64 -71 -83 -18 -19 -33 -38
-33 -42 0 -4 -17 -25 -37 -46 -21 -22 -49 -54 -63 -72 -14 -18 -38 -47 -54
-64 -16 -18 -45 -52 -65 -77 -20 -25 -40 -50 -46 -56 -5 -6 -25 -29 -43 -52
-39 -48 -63 -75 -103 -119 -16 -18 -29 -35 -29 -39 0 -3 -12 -18 -27 -34 -37
-38 -71 -77 -111 -127 -19 -23 -42 -51 -52 -63 -10 -12 -33 -39 -52 -62 -18
-23 -45 -55 -60 -72 -15 -17 -28 -34 -28 -39 0 -13 978 -3 1035 11 78 19 159
44 169 54 6 4 20 8 33 8 13 0 23 5 23 10 0 6 6 10 14 10 17 0 100 42 104 53 2
4 12 7 23 7 10 0 19 5 19 10 0 6 7 10 15 10 8 0 15 4 15 8 0 4 12 15 28 24 60
37 198 165 252 236 14 18 33 42 42 54 10 11 20 29 23 39 4 11 10 19 14 19 4 0
25 39 48 87 68 144 83 182 83 207 0 14 4 27 9 30 10 7 17 50 32 198 11 109 2
294 -20 383 -23 99 -63 215 -73 215 -5 0 -8 7 -8 15 0 14 -18 53 -30 65 -3 3
-16 25 -29 50 -14 25 -28 47 -31 50 -4 3 -13 16 -20 29 -26 50 -243 271 -265
271 -3 0 -15 9 -27 20 -12 11 -28 20 -35 20 -7 0 -13 5 -13 10 0 6 -6 10 -14
10 -8 0 -16 4 -18 8 -4 11 -173 92 -191 92 -9 0 -18 4 -21 9 -3 5 -18 11 -33
14 -16 3 -48 11 -73 17 -25 7 -76 16 -115 22 -87 13 -1841 20 -1870 8z"/>
</g>
</svg>
